# xmcd
# 
# Track frame offsets:
#     150
#     11743
#     23123
#     35878
#     49538
#     62910
#     74638
#     83925
#     96098
#     109333
#     128140
#     144493
#     157608
# 
# Disc length: 2162
# 
# Revision: 1
# Processed by: cddbd v1.5.2PL0 Copyright (c) Steve Scherf et al.
# Submitted via: BonkEnc v1.0
# 
DISCID=b108700d
DTITLE=王様 - カブトムシ外伝
DYEAR=2005
DGENRE=JPop
TTITLE0=ひねってワォ！(Twist and Shout)
TTITLE1=お願い郵便屋さん(Please Mr. Postman)
TTITLE2=踊るベートーヴェン(Roll Over Beethoven)
TTITLE3=君に首ったけ(You Really Gotta Hold On Me)
TTITLE4=リジーにクラクラ(Dizzy Miss Lizzy)
TTITLE5=月光おじさん(Mr. Moonlight)
TTITLE6=長身サリー(Long Tall Sally)
TTITLE7=男子(Boys)
TTITLE8=ゼニー(Money)
TTITLE9=米とげ、ザーッと
TTITLE10=Hey柔道一直線
TTITLE11=カブトムシキング・メドレー
TTITLE12=おまけ
EXTD=YEAR: 2005.12.16
EXTT0=
EXTT1=
EXTT2=
EXTT3=
EXTT4=
EXTT5=
EXTT6=
EXTT7=
EXTT8=
EXTT9=
EXTT10=
EXTT11=
EXTT12=
PLAYORDER=
